<svg width="67" height="44" viewBox="0 0 67 44" fill="none" xmlns="http://www.w3.org/2000/svg">
<g clip-path="url(#clip0_6960_2213)">
<path fill-rule="evenodd" clip-rule="evenodd" d="M33.8765 10.71C32.8348 10.71 33.1441 9.87087 33.1441 8.72361C33.1441 7.38571 29.9528 7.45953 28.6579 7.45953C26.1745 7.45953 23.9074 7.98757 21.8828 8.45274L21.9958 8.52185C22.3476 8.67657 24.6704 8.67117 25.9269 10.1528C26.2606 10.5463 26.487 10.8794 26.7353 11.342L29.3878 11.1581C29.7924 11.1677 32.6214 11.3876 32.9523 11.5312C33.8788 11.9332 33.1441 12.8157 33.1441 13.509C33.1441 14.5183 33.0311 14.9537 34.1512 14.9537C35.9458 14.9537 39.9939 11.9668 41.7885 11.2895C46.4396 9.53397 52.2395 12.0739 56.5701 8.8923C56.9623 8.60418 57.2796 8.3564 57.4062 7.8207C56.5396 7.6216 56.0208 8.54301 53.6524 8.54301C49.5288 8.54301 46.5499 5.28808 39.1877 8.54404C37.9669 9.08395 35.1539 10.71 33.8765 10.71Z" fill="#F7931E"/>
<path fill-rule="evenodd" clip-rule="evenodd" d="M33.8762 17.6624C32.8345 17.6624 33.1438 16.8233 33.1438 15.676C33.1438 14.2074 28.4242 14.2824 27.4674 14.5022C27.109 16.0191 26.6406 17.4361 25.2722 18.3869L24.7207 18.7459L26.8651 18.3325C29.0825 17.997 29.0045 18.2197 30.3971 18.2042C30.9509 18.198 31.1339 18.2533 31.5899 18.2919C34.4389 18.533 33.1438 19.2717 33.1438 20.4614C33.1438 21.4707 33.0308 21.9061 34.1509 21.9061C36.0886 21.9061 39.7631 19.0063 41.7882 18.2419C42.2919 18.0518 42.7054 17.9252 43.2809 17.8179C47.1314 17.0999 51.8853 18.2978 55.3924 16.5796C56.1217 16.2223 57.208 15.6107 57.4058 14.7731C56.5027 14.5656 56.1797 15.4954 53.469 15.4954C51.0942 15.4954 48.7191 14.0508 45.0459 14.0508C41.8971 14.0508 39.225 15.4664 36.6841 16.7296C36.1107 17.0146 34.627 17.6624 33.8762 17.6624Z" fill="#00A24E"/>
<path fill-rule="evenodd" clip-rule="evenodd" d="M6.31836 3.66729H15.1992C15.1199 4.00274 14.9399 4.17396 14.7712 4.50927C13.9878 6.06694 12.7449 8.06371 11.9631 9.59521C11.7789 9.95589 11.6568 10.1358 11.4756 10.4688L9.61496 13.8708C9.46021 14.1802 9.30847 14.3902 9.15546 14.6817L8.22334 16.3809C8.04475 16.6698 7.86561 16.9526 7.78326 17.3012C7.90537 17.4656 8.75728 18.1231 9.06502 18.2041C9.16581 17.7775 9.38661 17.5456 9.58392 17.1809L14.6322 8.16439C15.4663 6.81245 17.3936 3.08052 18.0374 2.13232H6.31836V3.66729Z" fill="#A08B63"/>
<path fill-rule="evenodd" clip-rule="evenodd" d="M14.375 11.2517C14.8743 11.3665 15.1574 11.6788 15.6568 11.7935L19.1076 5.71615C19.3006 5.37598 19.468 5.0585 19.6674 4.73327C19.8269 4.47329 20.1694 3.94274 20.2345 3.66729H26.5518V2.13232H19.6852C19.3446 2.13232 19.1153 2.81542 18.9351 3.10812L17.6323 5.43497C17.3819 5.84868 17.2276 6.18104 16.9772 6.59473L14.375 11.2517Z" fill="#A08B63"/>
<path fill-rule="evenodd" clip-rule="evenodd" d="M35.7069 34.2756H38.0873V36.8038H35.7069V34.2756ZM54.201 34.2756C54.6282 34.2756 55.0559 34.2778 55.4831 34.2753C56.8219 34.2675 56.5814 33.8779 56.5814 36.6232H54.0179C54.6253 35.491 54.3015 35.0485 54.201 34.2756ZM43.6721 30.664C43.7046 31.0492 43.8227 31.0914 43.8552 31.4766C44.8165 31.3977 45.6259 30.8818 46.2357 33.463H33.418V34.2756H34.7913V36.8038C34.2771 36.8038 33.3553 36.7782 34.0583 37.8872C34.2853 38.2453 35.7069 39.7009 35.7069 37.6164H38.0873V40.3251H39.0944V34.2756C39.4914 34.2756 39.6938 34.3411 39.9269 34.348C40.2064 34.3562 40.3258 34.2756 40.7424 34.2756H43.6721V35.1785C42.2766 35.1785 40.4677 34.9208 40.4677 36.5329C40.4677 36.9826 40.8275 37.3372 41.017 37.6164C40.432 37.7704 40.3762 38.5648 40.3762 39.061C40.3762 40.1786 41.6659 41.1605 42.4819 41.8601L43.1442 41.2491C42.4091 40.7507 41.2917 39.8467 41.2917 38.8805C41.2917 37.5421 44.1299 37.4607 44.1299 38.6096C44.1299 39.2773 43.8067 39.2755 43.3059 39.5125C43.3355 39.8631 43.4486 40.0792 43.5806 40.3251C44.5681 39.8578 45.0455 39.7234 45.0455 38.429C45.0455 37.9575 44.6103 37.5315 44.3123 37.3462C42.7879 36.3983 41.3833 37.8073 41.3833 36.4426C41.3833 35.7636 43.7909 35.9911 44.6792 35.9911V34.2756C45.0471 34.2756 45.2351 34.325 45.4371 34.3417C45.8166 34.373 45.7798 34.2756 46.2357 34.2756V40.3251H47.2428V34.2756C47.6398 34.2756 47.8422 34.3411 48.0753 34.348C48.3181 34.3551 50.0094 34.2149 50.8086 34.2804C52.5541 34.4233 51.5632 34.2756 53.1023 34.2756C53.4068 34.2756 53.5543 35.6002 53.1023 36.4426C52.109 35.7866 52.8059 35.9009 50.7219 35.9009C50.1326 35.9009 49.4777 36.0502 49.1096 36.2972C47.3423 37.4828 49.0725 39.6285 50.2641 40.4154L50.9263 39.8044C49.3062 38.9288 48.7355 37.0457 50.0897 36.8123C50.5591 36.7314 50.9123 36.7135 51.4543 36.7135C51.7004 37.7551 53.8883 40.0134 54.6587 40.4154L55.2292 39.8945C54.8517 39.3616 53.6276 38.5694 52.9192 37.5261C53.7656 37.3032 52.7724 37.2593 54.1221 37.422C55.1405 37.5447 55.5807 37.5261 56.5814 37.5261V40.3251H57.4969V34.2756C57.894 34.2756 58.0964 34.3411 58.3295 34.348C58.609 34.3562 58.7284 34.2756 59.1449 34.2756H62.1662C62.3772 34.2756 62.4409 34.3384 62.4409 34.5465C62.4409 37.0074 62.8723 37.8719 61.0003 38.1892C59.2413 38.4875 59.0855 36.0815 60.7929 36.0815L62.0747 36.1717V35.2688C61.4138 35.2688 60.424 34.9481 59.4695 35.589C58.0518 36.5407 58.5074 39.061 60.7013 39.061C61.4172 39.061 61.9065 38.7324 62.4409 38.6096V40.3251H63.3565V34.2756H64.4551V33.463H47.3343C46.9229 33.463 47.0167 32.6372 46.4497 31.6267C45.8042 30.4764 44.5879 30.2306 43.6721 30.664Z" fill="#A08B63"/>
<path fill-rule="evenodd" clip-rule="evenodd" d="M26.277 22.7185C26.277 21.0181 27.9517 21.3975 28.5501 22.2826C28.783 22.6272 29.1652 23.2198 29.2067 23.7117H26.5516C26.4597 23.3224 26.277 23.2171 26.277 22.7185ZM25.6361 23.7117H7.14196V24.5243H7.96596V26.0593C7.96596 26.5234 6.6201 26.955 5.76864 26.5107C6.13453 25.9719 6.50109 26.018 6.50109 25.0661C6.50109 23.814 5.42167 23.6214 4.48688 23.6214C3.78045 23.6214 3.53237 23.8653 3.02201 23.9826C3.05159 24.3332 3.16469 24.5493 3.29666 24.7952C3.45945 24.7578 5.58553 23.7908 5.58553 25.1564C5.58553 25.9198 4.78977 25.969 4.21222 25.969C4.21222 27.6458 4.44543 26.2679 5.19502 26.9856C5.99301 27.7496 5.69715 28.768 5.12775 28.768C4.21325 28.768 4.01435 28.7933 3.32023 27.8418C3.11665 27.5628 2.64465 26.6707 2.56423 26.3301C2.302 26.3904 1.95802 26.498 1.74023 26.601C1.99457 27.6776 3.23246 29.6709 4.66998 29.6709C6.31804 29.6709 6.82399 28.8708 6.50109 27.5039C7.12816 27.5039 7.55178 27.429 7.96596 27.2331V30.5738H8.88151V24.5243H10.8042V30.5738H11.7197V24.5243H18.6779V25.6981H15.6566C15.6282 26.0344 15.5131 26.1759 15.3819 26.4204C16.2582 26.9991 16.8929 27.6421 16.389 28.6777C14.5103 29.1094 14.3533 27.5279 13.5508 25.8787C13.1953 25.9079 12.9762 26.0194 12.7268 26.1495C12.8251 26.3515 12.8493 26.5019 12.9474 26.7446C13.0426 26.98 13.1111 27.0692 13.2102 27.2981C14.7091 30.7591 17.4877 29.9768 17.4877 28.0457C17.4877 27.3159 17.0546 26.9516 16.7553 26.5107H18.6779V30.3029C18.6779 30.7158 19.685 30.7158 19.685 30.3029V24.5243H21.2414V30.3029C21.2414 30.7158 22.2485 30.7158 22.2485 30.3029V24.5243H26.0938V25.5175C25.2568 25.5175 24.5494 25.707 24.0748 26.0545C23.0609 26.7968 23.1442 28.7111 24.3819 29.3728C25.2136 29.8175 25.4454 29.7612 26.6432 29.7612C26.8928 30.2263 27.1261 30.6504 27.3756 31.1155C27.817 31.0793 27.7977 30.937 28.1996 30.8447L27.4672 29.5806C28.5044 29.0393 27.9418 27.8651 27.0094 27.8651C26.1599 27.8651 26.277 28.5978 26.277 28.9486C25.0526 28.9486 24.3543 28.7502 24.3543 27.5039C24.3543 26.2822 26.1283 26.3301 27.101 26.3301V24.5243H29.2983V30.5738H30.2138V24.5243H31.4041V23.7117H30.1223C30.0713 23.1074 29.5473 22.2086 29.2456 21.7773C28.1765 20.2493 25.9645 20.5033 25.449 21.7216C25.1678 22.3865 25.331 23.1431 25.6361 23.7117Z" fill="#A08B63"/>
<path fill-rule="evenodd" clip-rule="evenodd" d="M20.6919 34.3663H22.9808V36.8041H20.6919V34.3663ZM11.8111 33.7342C11.823 34.2629 11.9548 34.08 11.9942 34.5468C12.4341 34.5107 13.7122 33.7938 14.2238 34.515C14.7298 35.2284 14.0362 35.726 13.0013 35.8109V36.6235C13.4385 36.6235 13.3809 36.5622 13.7337 36.5332C14.0471 36.9947 14.4662 37.0743 14.4662 37.8876C14.4662 38.5336 13.3656 39.2359 12.1624 37.7217C11.928 37.4266 11.4458 36.5636 11.3533 36.1721C10.9403 36.1811 10.8696 36.2745 10.5293 36.3527C10.5807 36.9617 11.816 39.4225 13.3675 39.4225C15.8141 39.4225 15.3596 38.0785 15.2902 37.2556C15.5551 37.2556 15.8334 37.278 16.0922 37.234C16.33 37.1935 16.433 37.1014 16.7551 37.075V40.3254H17.6706V34.3663H19.6848V36.8041C18.9978 36.8041 18.7693 36.7662 18.7693 37.3458C18.7693 38.1384 20.6424 39.8065 20.6919 37.6167H22.9808V40.3254C21.4602 40.6748 21.6684 43.2148 23.5301 43.2148C24.2948 43.2148 24.5637 43.222 25.2697 42.8536C25.1651 42.6388 25.0561 42.2996 24.995 42.041C22.5816 43.3004 22.0581 40.9116 24.0794 40.8672C23.865 39.9596 23.9879 35.6209 23.9879 34.3663H29.0234V35.9012C28.045 35.9012 26.5929 35.8019 25.8547 36.2976C24.7134 37.0637 25.0369 38.4291 25.8408 39.3108L27.0092 40.4158C27.283 40.2349 27.4631 40.1494 27.6501 39.874C27.0818 39.1091 26.0936 38.9374 26.0936 37.6167C26.0936 37.1203 26.4453 36.8884 26.8465 36.8242C27.6606 36.694 28.2132 36.7138 29.0234 36.7138V40.3254H29.939V34.3663C31.3178 34.3663 31.1292 34.5396 31.1292 33.4634H15.9311V34.3663H16.7551V35.8109C16.7551 36.2357 15.7803 36.5332 15.2902 36.5332C15.0229 36.5332 14.8154 36.4119 14.5577 36.3527C14.6618 35.9682 14.7409 36.2081 15.0392 35.7441C15.6644 34.7719 15.1621 33.373 13.3675 33.373C12.718 33.373 12.3399 33.6127 11.8111 33.7342Z" fill="#A08B63"/>
<path fill-rule="evenodd" clip-rule="evenodd" d="M31.9531 26.6008H34.6998V28.5872C34.6998 29.0927 32.9602 29.7671 32.9602 28.4066C32.9602 27.496 34.4107 27.8562 34.5166 27.8649V27.2329C33.836 27.2329 32.3193 27.0787 32.3193 28.4969C32.3193 29.6365 33.519 30.1796 34.6998 29.3998V30.6639H35.3406C35.3406 29.2081 35.0386 27.9735 36.5309 28.3164C36.7081 29.0665 36.6588 29.2816 36.2562 30.0319C36.4684 30.172 36.5533 30.2745 36.8971 30.3028C37.0826 29.5174 37.2633 30.1054 37.2633 28.5872C37.2633 27.8658 36.4903 27.3553 35.3406 27.9552V26.6008H38.0873V30.6639C39.013 30.6639 38.7282 30.982 38.7282 26.6008H39.4606V26.0591H31.9531V26.6008Z" fill="#A08B63"/>
<path fill-rule="evenodd" clip-rule="evenodd" d="M14.832 31.1158C14.832 31.8659 16.1138 32.0657 16.1138 31.1158C16.1138 30.1659 14.832 30.3656 14.832 31.1158Z" fill="#A08B63"/>
<path fill-rule="evenodd" clip-rule="evenodd" d="M21.1856 8.97463C24.1144 9.0986 26.3868 11.5406 26.261 14.429C26.1353 17.3174 23.6591 19.5583 20.7303 19.4344C20.1138 19.4082 19.5265 19.2791 18.9844 19.065V18.4212C19.5256 18.6679 20.1235 18.8168 20.7561 18.8436C23.354 18.9536 25.5505 16.9657 25.662 14.4036C25.7735 11.8415 23.7579 9.67537 21.1599 9.56541C20.3839 9.53257 19.6439 9.68697 18.9844 9.98781V9.34376C19.6625 9.07549 20.4081 8.94172 21.1856 8.97463Z" fill="#A08B63"/>
<path fill-rule="evenodd" clip-rule="evenodd" d="M20.8549 14.9834C20.893 14.9898 20.9322 14.9913 20.9724 14.9889C21.1557 16.4678 20.8144 17.1329 20.765 18.8645L20.7185 18.8628C20.8218 17.4333 20.5505 16.2778 20.8549 14.9834Z" fill="#A08B63"/>
<path fill-rule="evenodd" clip-rule="evenodd" d="M21.0645 14.9827C21.1029 14.9792 21.1412 14.9706 21.1793 14.958C21.7446 16.3398 21.5894 17.0694 21.9961 18.7546L21.9508 18.7648C21.6753 17.3576 21.1101 16.3107 21.0645 14.9827Z" fill="#A08B63"/>
<path fill-rule="evenodd" clip-rule="evenodd" d="M21.2656 14.9292C21.3018 14.9159 21.3365 14.8979 21.3701 14.876C22.2787 16.0664 22.3203 16.8107 23.1554 18.3347L23.1143 18.3561C22.479 17.0672 21.6583 16.2003 21.2656 14.9292Z" fill="#A08B63"/>
<path fill-rule="evenodd" clip-rule="evenodd" d="M21.4453 14.8261C21.4768 14.804 21.5056 14.7778 21.5323 14.748C22.7224 15.666 22.9579 16.3743 24.1645 17.6332L24.1304 17.6644C23.1784 16.5815 22.1582 15.9537 21.4453 14.8261Z" fill="#A08B63"/>
<path fill-rule="evenodd" clip-rule="evenodd" d="M21.5918 14.6811C21.6164 14.6517 21.6374 14.619 21.6553 14.5835C23.0458 15.1664 23.4591 15.7905 24.955 16.6985L24.9303 16.7373C23.7265 15.9343 22.5763 15.5882 21.5918 14.6811Z" fill="#A08B63"/>
<path fill-rule="evenodd" clip-rule="evenodd" d="M21.6953 14.503C21.7114 14.4684 21.723 14.4314 21.731 14.3926C23.2271 14.6007 23.7901 15.098 25.4734 15.5932L25.4597 15.6371C24.0862 15.1687 22.8844 15.128 21.6953 14.503Z" fill="#A08B63"/>
<path fill-rule="evenodd" clip-rule="evenodd" d="M21.748 14.3045C21.7545 14.2669 21.756 14.2283 21.7536 14.1887C23.2533 14.0078 23.9277 14.3445 25.6835 14.3932L25.6818 14.4391C24.2322 14.3372 23.0606 14.6047 21.748 14.3045Z" fill="#A08B63"/>
<path fill-rule="evenodd" clip-rule="evenodd" d="M21.7477 14.0995C21.7441 14.0615 21.7354 14.0238 21.7227 13.9862C23.1238 13.4287 23.8636 13.5818 25.5724 13.1807L25.5827 13.2254C24.1558 13.497 23.0943 14.0544 21.7477 14.0995Z" fill="#A08B63"/>
<path fill-rule="evenodd" clip-rule="evenodd" d="M21.6926 13.9013C21.6792 13.8656 21.6609 13.8314 21.6387 13.7983C22.8458 12.9022 23.6005 12.8612 25.1458 12.0376L25.1676 12.0782C23.8605 12.7047 22.9815 13.5141 21.6926 13.9013Z" fill="#A08B63"/>
<path fill-rule="evenodd" clip-rule="evenodd" d="M21.5889 13.7241C21.5665 13.693 21.5399 13.6646 21.5098 13.6384C22.4405 12.4647 23.1588 12.2325 24.4353 11.0425L24.467 11.0761C23.3689 12.0149 22.7322 13.0211 21.5889 13.7241Z" fill="#A08B63"/>
<path fill-rule="evenodd" clip-rule="evenodd" d="M21.4407 13.5795C21.411 13.5552 21.3778 13.5345 21.3418 13.5169C21.9328 12.1456 22.5657 11.7379 23.4864 10.2627L23.5258 10.2871C22.7115 11.4742 22.3606 12.6086 21.4407 13.5795Z" fill="#A08B63"/>
<path fill-rule="evenodd" clip-rule="evenodd" d="M21.2604 13.4774C21.2253 13.4615 21.1879 13.45 21.1484 13.4421C21.3595 11.9667 21.8637 11.4114 22.3659 9.75146L22.4104 9.76496C21.9354 11.1195 21.8942 12.3047 21.2604 13.4774Z" fill="#A08B63"/>
<path fill-rule="evenodd" clip-rule="evenodd" d="M21.0598 13.4246C21.0217 13.4182 20.9825 13.4167 20.9423 13.4191C20.759 11.9401 21.1003 11.2751 21.1497 9.54346L21.1962 9.54514C21.0929 10.9747 21.3642 12.1301 21.0598 13.4246Z" fill="#A08B63"/>
<path fill-rule="evenodd" clip-rule="evenodd" d="M20.8516 13.4251C20.8131 13.4287 20.7749 13.4373 20.7367 13.4499C20.1714 12.0681 20.3266 11.3385 19.9199 9.65331L19.9653 9.64307C20.2407 11.0503 20.8059 12.0971 20.8516 13.4251Z" fill="#A08B63"/>
<path fill-rule="evenodd" clip-rule="evenodd" d="M20.6515 13.4787C20.6153 13.492 20.5806 13.51 20.5471 13.5319C19.6384 12.3415 19.5968 11.5972 18.7617 10.0732L18.8028 10.0518C19.4382 11.3407 20.2589 12.2076 20.6515 13.4787Z" fill="#A08B63"/>
<path fill-rule="evenodd" clip-rule="evenodd" d="M20.4711 13.582C20.4396 13.6041 20.4108 13.6303 20.3842 13.66C19.1941 12.7421 18.9586 12.0338 17.752 10.7749L17.786 10.7437C18.738 11.8266 19.7582 12.4544 20.4711 13.582Z" fill="#A08B63"/>
<path fill-rule="evenodd" clip-rule="evenodd" d="M20.3242 13.7272C20.2995 13.7565 20.2786 13.7892 20.2607 13.8247C18.8702 13.2418 18.4568 12.6178 16.9609 11.7098L16.9856 11.6709C18.1894 12.4739 19.3396 12.82 20.3242 13.7272Z" fill="#A08B63"/>
<path fill-rule="evenodd" clip-rule="evenodd" d="M20.2214 13.9051C20.2053 13.9397 20.1937 13.9766 20.1857 14.0155C18.6896 13.8074 18.1266 13.3101 16.4434 12.8149L16.457 12.771C17.8305 13.2394 19.0324 13.2801 20.2214 13.9051Z" fill="#A08B63"/>
<path fill-rule="evenodd" clip-rule="evenodd" d="M20.1679 14.1033C20.1614 14.1409 20.1599 14.1796 20.1624 14.2191C18.6626 14.4 17.9883 14.0633 16.2324 14.0146L16.2341 13.9688C17.6837 14.0706 18.8553 13.8032 20.1679 14.1033Z" fill="#A08B63"/>
<path fill-rule="evenodd" clip-rule="evenodd" d="M20.169 14.3086C20.1726 14.3465 20.1813 14.3843 20.1941 14.4219C18.7929 14.9793 18.0532 14.8263 16.3444 15.2274L16.334 15.1827C17.7609 14.9111 18.8224 14.3537 20.169 14.3086Z" fill="#A08B63"/>
<path fill-rule="evenodd" clip-rule="evenodd" d="M20.223 14.5068C20.2365 14.5425 20.2547 14.5768 20.2769 14.6098C19.0698 15.506 18.3151 15.547 16.7698 16.3706L16.748 16.33C18.0551 15.7034 18.9341 14.8941 20.223 14.5068Z" fill="#A08B63"/>
<path fill-rule="evenodd" clip-rule="evenodd" d="M20.3273 14.6841C20.3497 14.7152 20.3763 14.7435 20.4064 14.7698C19.4756 15.9435 18.7574 16.1757 17.4809 17.3657L17.4492 17.3321C18.5473 16.3933 19.1839 15.3871 20.3273 14.6841Z" fill="#A08B63"/>
<path fill-rule="evenodd" clip-rule="evenodd" d="M20.4757 14.8286C20.5054 14.8529 20.5386 14.8735 20.5746 14.8912C19.9836 16.2625 19.3507 16.6702 18.43 18.1454L18.3906 18.121C19.2049 16.9339 19.5558 15.7995 20.4757 14.8286Z" fill="#A08B63"/>
<path fill-rule="evenodd" clip-rule="evenodd" d="M20.6558 14.9307C20.6909 14.9465 20.7284 14.958 20.7678 14.9659C20.5568 16.4413 20.0525 16.9966 19.5503 18.6566L19.5059 18.6431C19.9808 17.2886 20.0221 16.1033 20.6558 14.9307Z" fill="#A08B63"/>
</g>
<defs>
<clipPath id="clip0_6960_2213">
<rect width="67" height="42.9487" fill="white" transform="translate(0 0.274414)"/>
</clipPath>
</defs>
</svg>
